# xmcd
#
# Track frame offsets:
# 150
# 14102
# 29545
# 48083
# 63841
# 77799
# 101190
#
# Disc length: 1505 seconds
#
# Revision: 0
# Processed by: cddbd v1.5.2PL0 Copyright (c) Steve Scherf et al.
# Submitted via: Audion 3.0.2 (http://www.panic.com/audion/)
#
DISCID=5705df07
DTITLE=Mark Eitzel Hideout Inn Chicago 6.12.02 - Mark Eitzel Demos 1981
DYEAR=1900
DGENRE=
TTITLE0=1
TTITLE1=2
TTITLE2=3
TTITLE3=4
TTITLE4=5
TTITLE5=6
TTITLE6=7
EXTD=
EXTT0=
EXTT1=
EXTT2=
EXTT3=
EXTT4=
EXTT5=
EXTT6=
PLAYORDER=
